<svg id="ImportedIcons" xmlns="http://www.w3.org/2000/svg" width="96" height="96" viewBox="0 0 96 96">
  <defs>
    <style>
      .cls-1 {
        fill: #b3b3b3;
      }
    </style>
  </defs>
  <path class="cls-1" d="M20,46.25A5.25,5.25,0,1,1,25.25,41,5.25,5.25,0,0,1,20,46.25Zm0-7.5A2.25,2.25,0,1,0,22.25,41,2.25,2.25,0,0,0,20,38.75Z"/>
  <path class="cls-1" d="M20,33a1,1,0,0,1-1-1V12a1,1,0,0,1,2,0V32A1,1,0,0,1,20,33Z"/>
  <path class="cls-1" d="M34,84a1,1,0,0,1-1-1V70a1,1,0,0,1,2,0V83A1,1,0,0,1,34,84Z"/>
  <circle class="cls-1" cx="72.21257" cy="19.28589" r="2.00031"/>
  <path class="cls-1" d="M80.227,81.5H54.773A6.28,6.28,0,0,1,48.5,75.227v-.454A6.28,6.28,0,0,1,54.773,68.5H80.227A6.28,6.28,0,0,1,86.5,74.773v.454A6.28,6.28,0,0,1,80.227,81.5Zm-25.454-10A3.277,3.277,0,0,0,51.5,74.773v.454A3.277,3.277,0,0,0,54.773,78.5H80.227A3.277,3.277,0,0,0,83.5,75.227v-.454A3.277,3.277,0,0,0,80.227,71.5Z"/>
  <path class="cls-1" d="M20,84a1,1,0,0,1-1-1V50a1,1,0,0,1,2,0V83A1,1,0,0,1,20,84Z"/>
  <path class="cls-1" d="M34,53a1,1,0,0,1-1-1V12a1,1,0,0,1,2,0V52A1,1,0,0,1,34,53Z"/>
  <path class="cls-1" d="M80.227,63.5H54.773A6.28,6.28,0,0,1,48.5,57.227v-.454A6.28,6.28,0,0,1,54.773,50.5H80.227A6.28,6.28,0,0,1,86.5,56.773v.454A6.28,6.28,0,0,1,80.227,63.5Zm-25.454-10A3.277,3.277,0,0,0,51.5,56.773v.454A3.277,3.277,0,0,0,54.773,60.5H80.227A3.277,3.277,0,0,0,83.5,57.227v-.454A3.277,3.277,0,0,0,80.227,53.5Z"/>
  <path class="cls-1" d="M34,66.25A5.25,5.25,0,1,1,39.25,61,5.25,5.25,0,0,1,34,66.25Zm0-7.5A2.25,2.25,0,1,0,36.25,61,2.25,2.25,0,0,0,34,58.75Z"/>
  <path class="cls-1" d="M67.492,41a15.5,15.5,0,1,1,15.49-16.248h0a15.518,15.518,0,0,1-14.734,16.23C68,40.994,67.742,41,67.492,41Zm.014-28q-.3,0-.609.015A12.5,12.5,0,1,0,79.986,24.9h0A12.517,12.517,0,0,0,67.506,13Z"/>
</svg>
