<svg id="ImportedIcons" xmlns="http://www.w3.org/2000/svg" width="96" height="96" viewBox="0 0 96 96">
  <defs>
    <style>
      .cls-1 {
        fill: #b3b3b3;
      }
    </style>
  </defs>
  <path class="cls-1" d="M84.5,65A1.5,1.5,0,0,1,83,63.5v-2a1.5,1.5,0,0,1,3,0v2A1.5,1.5,0,0,1,84.5,65Z"/>
  <path class="cls-1" d="M74.5,68A1.5,1.5,0,0,1,73,66.5v-8a1.5,1.5,0,0,1,3,0h0v8A1.5,1.5,0,0,1,74.5,68Z"/>
  <path class="cls-1" d="M64.5,73A1.5,1.5,0,0,1,63,71.5v-18a1.5,1.5,0,0,1,3,0v18A1.5,1.5,0,0,1,64.5,73Z"/>
  <path class="cls-1" d="M84.5,35A1.5,1.5,0,0,1,83,33.5v-8a1.5,1.5,0,0,1,3,0v8A1.5,1.5,0,0,1,84.5,35Z"/>
  <path class="cls-1" d="M74.5,35A1.5,1.5,0,0,1,73,33.5v-8a1.5,1.5,0,0,1,3,0v8A1.5,1.5,0,0,1,74.5,35Z"/>
  <path class="cls-1" d="M64.5,40A1.5,1.5,0,0,1,63,38.5v-18a1.5,1.5,0,0,1,3,0v18A1.5,1.5,0,0,1,64.5,40Z"/>
  <path class="cls-1" d="M54.5,67A1.5,1.5,0,0,1,53,65.5v-6a1.5,1.5,0,0,1,3,0v6A1.5,1.5,0,0,1,54.5,67Z"/>
  <path class="cls-1" d="M44.5,69A1.5,1.5,0,0,1,43,67.5v-10a1.5,1.5,0,0,1,3,0v10A1.5,1.5,0,0,1,44.5,69Z"/>
  <path class="cls-1" d="M34.5,65A1.5,1.5,0,0,1,33,63.5v-2a1.5,1.5,0,0,1,3,0v2A1.5,1.5,0,0,1,34.5,65Z"/>
  <path class="cls-1" d="M24.5,68A1.5,1.5,0,0,1,23,66.5v-8a1.5,1.5,0,0,1,3,0h0v8A1.5,1.5,0,0,1,24.5,68Z"/>
  <path class="cls-1" d="M14.5,73A1.5,1.5,0,0,1,13,71.5v-18a1.5,1.5,0,0,1,3,0v18A1.5,1.5,0,0,1,14.5,73Z"/>
  <path class="cls-1" d="M54.5,36A1.5,1.5,0,0,1,53,34.5v-10a1.5,1.5,0,0,1,3,0v10A1.5,1.5,0,0,1,54.5,36Z"/>
  <path class="cls-1" d="M44.5,41A1.5,1.5,0,0,1,43,39.5v-19a1.5,1.5,0,0,1,3,0v19A1.5,1.5,0,0,1,44.5,41Z"/>
  <path class="cls-1" d="M34.5,39A1.5,1.5,0,0,1,33,37.5v-16a1.5,1.5,0,0,1,3,0v16A1.5,1.5,0,0,1,34.5,39Z"/>
  <path class="cls-1" d="M24.5,35A1.5,1.5,0,0,1,23,33.5v-8a1.5,1.5,0,0,1,3,0v8A1.5,1.5,0,0,1,24.5,35Z"/>
  <path class="cls-1" d="M14.5,40A1.5,1.5,0,0,1,13,38.5v-18a1.5,1.5,0,0,1,3,0v18A1.5,1.5,0,0,1,14.5,40Z"/>
  <path class="cls-1" d="M79.5,71A1.5,1.5,0,0,1,78,69.5v-14a1.5,1.5,0,0,1,3,0h0v14A1.5,1.5,0,0,1,79.5,71Z"/>
  <path class="cls-1" d="M59.5,71A1.5,1.5,0,0,1,58,69.5v-14a1.5,1.5,0,0,1,3,0h0v14A1.5,1.5,0,0,1,59.5,71Z"/>
  <path class="cls-1" d="M69.5,36A1.5,1.5,0,0,1,68,34.5v-10a1.5,1.5,0,0,1,3,0v10A1.5,1.5,0,0,1,69.5,36Z"/>
  <path class="cls-1" d="M49.5,65A1.5,1.5,0,0,1,48,63.5v-2a1.5,1.5,0,0,1,3,0v2A1.5,1.5,0,0,1,49.5,65Z"/>
  <path class="cls-1" d="M29.5,71A1.5,1.5,0,0,1,28,69.5v-14a1.5,1.5,0,0,1,3,0h0v14A1.5,1.5,0,0,1,29.5,71Z"/>
  <path class="cls-1" d="M9.5,71A1.5,1.5,0,0,1,8,69.5v-14a1.5,1.5,0,0,1,3,0h0v14A1.5,1.5,0,0,1,9.5,71Z"/>
  <path class="cls-1" d="M39.5,38A1.5,1.5,0,0,1,38,36.5v-14a1.5,1.5,0,0,1,3,0v14A1.5,1.5,0,0,1,39.5,38Z"/>
  <path class="cls-1" d="M19.5,36A1.5,1.5,0,0,1,18,34.5v-10a1.5,1.5,0,0,1,3,0v10A1.5,1.5,0,0,1,19.5,36Z"/>
  <path class="cls-1" d="M69.5,66A1.5,1.5,0,0,1,68,64.5v-4a1.5,1.5,0,0,1,3,0v4A1.5,1.5,0,0,1,69.5,66Z"/>
  <path class="cls-1" d="M59.5,32A1.5,1.5,0,0,1,58,30.5v-2a1.5,1.5,0,0,1,3,0v2A1.5,1.5,0,0,1,59.5,32Z"/>
  <path class="cls-1" d="M19.5,66A1.5,1.5,0,0,1,18,64.5v-4a1.5,1.5,0,0,1,3,0v4A1.5,1.5,0,0,1,19.5,66Z"/>
  <path class="cls-1" d="M29.5,33A1.5,1.5,0,0,1,28,31.5h0v-4a1.5,1.5,0,0,1,3,0v4A1.5,1.5,0,0,1,29.5,33Z"/>
  <path class="cls-1" d="M79.5,33A1.5,1.5,0,0,1,78,31.5h0v-4a1.5,1.5,0,0,1,3,0v4A1.5,1.5,0,0,1,79.5,33Z"/>
  <path class="cls-1" d="M49.5,36A1.5,1.5,0,0,1,48,34.5v-10a1.5,1.5,0,0,1,3,0v10A1.5,1.5,0,0,1,49.5,36Z"/>
  <path class="cls-1" d="M39.5,71A1.5,1.5,0,0,1,38,69.5v-14a1.5,1.5,0,0,1,3,0h0v14A1.5,1.5,0,0,1,39.5,71Z"/>
  <path class="cls-1" d="M9.5,32A1.5,1.5,0,0,1,8,30.5v-2a1.5,1.5,0,0,1,3,0v2A1.5,1.5,0,0,1,9.5,32Z"/>
</svg>
