<svg id="ImportedIcons" xmlns="http://www.w3.org/2000/svg" width="96" height="96" viewBox="0 0 96 96">
  <defs>
    <style>
      .cls-1 {
        fill: #b3b3b3;
      }
    </style>
  </defs>
  <path class="cls-1" d="M45.173,68.524l7.382,3.409a1.5,1.5,0,0,0,2-1.98L51.2,62.546a1.49994,1.49994,0,0,0-.3-.438L16.077,27.023a1.5,1.5,0,0,0-1.059-.443,1.538,1.538,0,0,0-1.062.435l-4.028,4a1.5,1.5,0,0,0-.008,2.121L44.737,68.219A1.49995,1.49995,0,0,0,45.173,68.524ZM15,30.2,48.576,64.029l1.581,3.492-3.48-1.607L13.1,32.086Z"/>
  <path class="cls-1" d="M25.5,31.5A1.5,1.5,0,0,0,27,30V13.786A.787.787,0,0,1,27.786,13H57V30.214A3.79,3.79,0,0,0,60.786,34H79.5a1.5,1.5,0,0,0,1.035-2.586l-21-21c-.006-.006-.014-.007-.021-.013a1.50011,1.50011,0,0,0-.468-.295c-.016-.006-.033-.01-.05-.015A1.487,1.487,0,0,0,58.5,10H27.786A3.79,3.79,0,0,0,24,13.786V30A1.5,1.5,0,0,0,25.5,31.5ZM60,30.214V15L75.75,31H60.786A.787.787,0,0,1,60,30.214Z"/>
  <path class="cls-1" d="M79.5,37A1.5,1.5,0,0,0,78,38.5V81.214a.787.787,0,0,1-.786.786H27.786A.787.787,0,0,1,27,81.214V56a1.5,1.5,0,0,0-3,0V81.214A3.79,3.79,0,0,0,27.786,85H77.214A3.79,3.79,0,0,0,81,81.214V38.5A1.5,1.5,0,0,0,79.5,37Z"/>
</svg>
