<svg id="ImportedIcons" xmlns="http://www.w3.org/2000/svg" width="96" height="96" viewBox="0 0 96 96">
  <defs>
    <style>
      .cls-1 {
        fill: #b3b3b3;
      }
    </style>
  </defs>
  <path class="cls-1" d="M47.284,79.454a31.5,31.5,0,0,1-5.767-62.06l.02-.007-1.405,4.265a1.5002,1.5002,0,1,0,2.85.938l2.5-7.6a1.5,1.5,0,0,0-.95563-1.89388L44.526,13.096l-7.6-2.5a1.5002,1.5002,0,0,0-.938,2.85l3.889,1.281a34.5,34.5,0,0,0,7.24,67.725h.082a1.50052,1.50052,0,0,0,.079-3Z"/>
  <path class="cls-1" d="M83.5,48A34.393,34.393,0,0,0,50.392,13.527a1.50118,1.50118,0,0,0-.119,3,31.5,31.5,0,0,1,6.21,62.081l-.02.007,1.405-4.265a1.5002,1.5002,0,0,0-2.85-.938h0l-2.5,7.6a1.5,1.5,0,0,0,.95563,1.89388l.00037.00012,7.6,2.5a1.5002,1.5002,0,0,0,.938-2.85l-3.889-1.281A34.4,34.4,0,0,0,83.5,48Z"/>
  <path class="cls-1" d="M62.056,63.143A39.154,39.154,0,0,1,59.79,69.42a1.00046,1.00046,0,1,0,1.81.853h0a41.55455,41.55455,0,0,0,2.535-7.13h7.5a1,1,0,0,0,0-2H64.606A60.97506,60.97506,0,0,0,65.972,49h9.9a1,1,0,0,0,0-2H65.98a60.66737,60.66737,0,0,0-1.547-12.844h7.2a1,1,0,0,0,0-2H63.921a35.31383,35.31383,0,0,0-4.453-10.171,1,1,0,0,0-1.7073,1.04169q.023.03772.0493.07331a32.70765,32.70765,0,0,1,4.039,9.052H50.037V21.13a1,1,0,0,0-2,0V32.156H36.222a39.81,39.81,0,0,1,1.5-4.269,1,1,0,0,0-1.843-.776,42.37759,42.37759,0,0,0-1.732,5.045H26.375a1,1,0,0,0,0,2h7.253A60.82321,60.82321,0,0,0,32.1,47H22.132a1,1,0,0,0,0,2h9.96a61.12323,61.12323,0,0,0,1.361,12.142H26.375a1,1,0,1,0,0,2h7.559a37.27487,37.27487,0,0,0,4.151,10.114,1.00011,1.00011,0,0,0,1.7-1.054h0A34.7402,34.7402,0,0,1,36,63.143H48.037V74.871a1,1,0,0,0,2,0V63.143Zm.5-2H50.037V49H63.972a58.62679,58.62679,0,0,1-1.413,12.143Zm-.171-26.986A58.44621,58.44621,0,0,1,63.98,47H50.037V34.156Zm-26.694,0H48.037V47H34.1a58.36191,58.36191,0,0,1,1.593-12.844Zm-.2,26.986A58.84671,58.84671,0,0,1,34.092,49H48.037V61.143Z"/>
</svg>
