<svg id="ImportedIcons" xmlns="http://www.w3.org/2000/svg" width="96" height="96" viewBox="0 0 96 96">
  <defs>
    <style>
      .cls-1 {
        fill: #b3b3b3;
      }
    </style>
  </defs>
  <path class="cls-1" d="M74,48.5v10a1.5,1.5,0,0,0,3,0v-10a1.5,1.5,0,0,0-3,0Z"/>
  <path class="cls-1" d="M69,46.5v14a1.5,1.5,0,0,0,3,0h0v-14a1.5,1.5,0,0,0-3,0Z"/>
  <path class="cls-1" d="M79,52.094v2.812a1.5,1.5,0,1,0,3,0V52.094a1.5,1.5,0,1,0-3,0Z"/>
  <path class="cls-1" d="M64,51.492v4.017a1.5,1.5,0,0,0,3,0V51.492a1.5,1.5,0,1,0-3,0Z"/>
  <path class="cls-1" d="M28.5,52.96a1.5,1.5,0,0,0,1.5-1.5V45.54a1.5,1.5,0,1,0-3,0v5.92A1.5,1.5,0,0,0,28.5,52.96Z"/>
  <path class="cls-1" d="M42.5,55.412a1.5,1.5,0,0,0,1.5-1.5V43.088a1.5,1.5,0,1,0-3,0V53.912A1.5,1.5,0,0,0,42.5,55.412Z"/>
  <path class="cls-1" d="M35.5,60A1.5,1.5,0,0,0,37,58.5v-21a1.5,1.5,0,0,0-3,0v21A1.5,1.5,0,0,0,35.5,60Z"/>
  <path class="cls-1" d="M59,46.5v14a1.5,1.5,0,0,0,3,0h0v-14a1.5,1.5,0,0,0-3,0Z"/>
  <path class="cls-1" d="M54,49.5v8a1.5,1.5,0,0,0,3,0v-8a1.5,1.5,0,0,0-3,0Z"/>
  <path class="cls-1" d="M33.907,65.8a17.468,17.468,0,1,0-14.875-8.418L6.876,69.371a4.138,4.138,0,0,0,2.579,7.2h.206a4.15,4.15,0,0,0,2.821-1.116L24.87,63.244A17.27093,17.27093,0,0,0,33.907,65.8Zm0-31.8A14.4,14.4,0,1,1,22.258,56.836a1.44718,1.44718,0,0,0-.208-.319c-.018-.018-.042-.024-.061-.041A14.394,14.394,0,0,1,33.907,34ZM10.42,73.278a1.1,1.1,0,0,1-.819.293,1.129,1.129,0,0,1-.787-.372,1.156,1.156,0,0,1,.1037-1.63154L8.938,71.55,20.821,59.835a17.53907,17.53907,0,0,0,1.6,1.607Z"/>
  <path class="cls-1" d="M33.5,28A1.5,1.5,0,0,0,35,26.5V12.786A.787.787,0,0,1,35.786,12H65V29.214A3.79,3.79,0,0,0,68.786,33H87.5a1.49219,1.49219,0,0,0,.548-.107l.022-.007a1.5,1.5,0,0,0,.817-.817l.007-.022a1.46,1.46,0,0,0,0-1.1l-.007-.022a1.50021,1.50021,0,0,0-.328-.493l-21-21a1.5001,1.5001,0,0,0-.493-.328l-.022-.007A1.4921,1.4921,0,0,0,66.5,9H35.786A3.79,3.79,0,0,0,32,12.786V26.5A1.5,1.5,0,0,0,33.5,28ZM68,29.214V14.121L83.879,30H68.786A.787.787,0,0,1,68,29.214Z"/>
  <path class="cls-1" d="M87.5,36A1.5,1.5,0,0,0,86,37.5V81.214a.787.787,0,0,1-.786.786H35.786A.787.787,0,0,1,35,81.214V71a1.5,1.5,0,0,0-3,0V81.214A3.79,3.79,0,0,0,35.786,85H85.214A3.79,3.79,0,0,0,89,81.214V37.5A1.5,1.5,0,0,0,87.5,36Z"/>
</svg>
